<svg data-v-423bf9ae="" xmlns="http://www.w3.org/2000/svg" viewBox="0 0 516 90" class="iconLeft"><!----><!----><!----><g data-v-423bf9ae="" id="f1bb3f75-3c07-4252-8404-d2c7ea03d945" fill="white" transform="matrix(5.769230980844901,0,0,5.769230980844901,104.34614510331639,3.11538594008902)"><path d="M0.98 12.29L0.98 2.69L2.21 2.69L2.21 6.82L6.08 6.82L6.08 2.69L7.31 2.69L7.31 12.29L6.08 12.29L6.08 7.94L2.21 7.94L2.21 12.29L0.98 12.29ZM10.70 12.46L10.70 12.46Q9.94 12.46 9.35 12.01L9.35 12.01L9.35 12.01Q8.76 11.56 8.76 10.39L8.76 10.39L8.76 10.39Q8.76 8.97 9.72 8.45L9.72 8.45L9.72 8.45Q10.68 7.92 12.49 7.92L12.49 7.92L12.49 6.97L12.49 6.97Q12.49 6.40 12.24 6.09L12.24 6.09L12.24 6.09Q11.98 5.78 11.33 5.78L11.33 5.78L11.33 5.78Q10.72 5.78 10.46 6.12L10.46 6.12L10.46 6.12Q10.19 6.45 10.19 6.94L10.19 6.94L10.19 7.11L9.06 7.11L9.06 7.11Q9.04 7.03 9.04 6.80L9.04 6.80L9.04 6.80Q9.04 5.82 9.69 5.29L9.69 5.29L9.69 5.29Q10.33 4.76 11.41 4.76L11.41 4.76L11.41 4.76Q12.52 4.76 13.08 5.29L13.08 5.29L13.08 5.29Q13.64 5.82 13.64 6.82L13.64 6.82L13.64 10.95L13.64 10.95Q13.64 11.19 13.75 11.31L13.75 11.31L13.75 11.31Q13.86 11.44 14.03 11.44L14.03 11.44L14.48 11.44L14.48 12.24L14.48 12.24Q14.17 12.40 13.72 12.40L13.72 12.40L13.72 12.40Q13.27 12.40 12.97 12.16L12.97 12.16L12.97 12.16Q12.67 11.91 12.56 11.49L12.56 11.49L12.49 11.49L12.49 11.49Q12.21 11.96 11.74 12.21L11.74 12.21L11.74 12.21Q11.27 12.46 10.70 12.46L10.70 12.46ZM10.96 11.44L10.96 11.44Q11.34 11.44 11.69 11.23L11.69 11.23L11.69 11.23Q12.04 11.02 12.26 10.61L12.26 10.61L12.26 10.61Q12.49 10.19 12.49 9.62L12.49 9.62L12.49 8.95L12.49 8.95Q11.23 8.95 10.60 9.23L10.60 9.23L10.60 9.23Q9.97 9.52 9.97 10.32L9.97 10.32L9.97 10.32Q9.97 10.92 10.21 11.18L10.21 11.18L10.21 11.18Q10.46 11.44 10.96 11.44L10.96 11.44ZM15.37 3.54L15.37 2.17L16.52 2.17L16.52 3.54L15.37 3.54ZM15.37 12.29L15.37 4.93L16.52 4.93L16.52 12.29L15.37 12.29ZM18.06 12.29L18.06 4.93L18.93 4.93L19.08 5.89L19.17 5.89L19.17 5.89Q19.32 5.40 19.63 5.08L19.63 5.08L19.63 5.08Q19.94 4.76 20.41 4.76L20.41 4.76L20.41 4.76Q20.61 4.76 20.76 4.81L20.76 4.81L20.76 4.81Q20.92 4.86 20.96 4.87L20.96 4.87L20.96 6.06L20.58 6.06L20.58 6.06Q19.98 6.06 19.59 6.47L19.59 6.47L19.59 6.47Q19.21 6.89 19.21 7.80L19.21 7.80L19.21 12.29L18.06 12.29ZM25.21 12.29L25.21 2.69L28.20 2.69L28.20 2.69Q29.92 2.69 30.88 3.88L30.88 3.88L30.88 3.88Q31.84 5.07 31.84 7.35L31.84 7.35L31.84 7.35Q31.84 9.79 30.88 11.04L30.88 11.04L30.88 11.04Q29.93 12.29 28.20 12.29L28.20 12.29L25.21 12.29ZM26.45 11.17L28.08 11.17L28.08 11.17Q29.25 11.17 29.90 10.30L29.90 10.30L29.90 10.30Q30.55 9.42 30.55 7.70L30.55 7.70L30.55 7L30.55 7Q30.55 5.43 29.90 4.62L29.90 4.62L29.90 4.62Q29.25 3.81 28.08 3.81L28.08 3.81L26.45 3.81L26.45 11.17ZM35.90 12.46L35.90 12.46Q34.50 12.46 33.80 11.54L33.80 11.54L33.80 11.54Q33.11 10.63 33.11 8.61L33.11 8.61L33.11 8.61Q33.11 6.64 33.80 5.70L33.80 5.70L33.80 5.70Q34.48 4.76 35.88 4.76L35.88 4.76L35.88 4.76Q37.11 4.76 37.71 5.58L37.71 5.58L37.71 5.58Q38.30 6.40 38.30 8.22L38.30 8.22L38.30 8.95L34.31 8.95L34.31 8.95Q34.33 10.23 34.71 10.84L34.71 10.84L34.71 10.84Q35.10 11.44 35.92 11.44L35.92 11.44L35.92 11.44Q36.48 11.44 36.83 10.99L36.83 10.99L36.83 10.99Q37.17 10.54 37.17 9.79L37.17 9.79L38.30 9.79L38.30 9.79Q38.30 11.02 37.64 11.74L37.64 11.74L37.64 11.74Q36.97 12.46 35.90 12.46L35.90 12.46ZM34.33 7.92L37.10 7.92L37.10 7.92Q37.10 6.87 36.79 6.33L36.79 6.33L36.79 6.33Q36.48 5.78 35.88 5.78L35.88 5.78L35.88 5.78Q35.14 5.78 34.77 6.31L34.77 6.31L34.77 6.31Q34.40 6.83 34.33 7.92L34.33 7.92ZM39.68 12.29L39.68 5.95L39.03 5.95L39.03 4.93L39.68 4.93L39.68 3.75L39.68 3.75Q39.68 3.02 40.02 2.54L40.02 2.54L40.02 2.54Q40.36 2.06 41.13 2.06L41.13 2.06L41.13 2.06Q41.62 2.06 42.10 2.23L42.10 2.23L42.10 3.02L41.48 3.02L41.48 3.02Q40.82 3.02 40.82 3.70L40.82 3.70L40.82 4.93L42.10 4.93L42.10 5.95L40.82 5.95L40.82 12.29L39.68 12.29ZM42.80 3.54L42.80 2.17L43.95 2.17L43.95 3.54L42.80 3.54ZM42.80 12.29L42.80 4.93L43.95 4.93L43.95 12.29L42.80 12.29ZM45.49 12.29L45.49 4.93L46.35 4.93L46.51 5.78L46.59 5.78L46.59 5.78Q47.17 4.76 48.37 4.76L48.37 4.76L48.37 4.76Q49.25 4.76 49.72 5.28L49.72 5.28L49.72 5.28Q50.19 5.81 50.19 6.99L50.19 6.99L50.19 12.29L49.04 12.29L49.04 7.07L49.04 7.07Q49.04 6.36 48.78 6.07L48.78 6.07L48.78 6.07Q48.51 5.78 48.01 5.78L48.01 5.78L48.01 5.78Q47.43 5.78 47.03 6.33L47.03 6.33L47.03 6.33Q46.63 6.87 46.63 7.80L46.63 7.80L46.63 12.29L45.49 12.29ZM51.73 3.54L51.73 2.17L52.88 2.17L52.88 3.54L51.73 3.54ZM51.73 12.29L51.73 4.93L52.88 4.93L52.88 12.29L51.73 12.29ZM55.72 12.43L55.72 12.43Q55.02 12.43 54.71 11.95L54.71 11.95L54.71 11.95Q54.40 11.47 54.40 10.74L54.40 10.74L54.40 5.95L53.77 5.95L53.77 4.93L54.40 4.93L54.66 2.88L55.55 2.88L55.55 4.93L56.55 4.93L56.55 5.95L55.55 5.95L55.55 10.77L55.55 10.77Q55.55 11.44 56.21 11.44L56.21 11.44L56.55 11.44L56.55 12.24L56.55 12.24Q56.39 12.32 56.16 12.38L56.16 12.38L56.16 12.38Q55.93 12.43 55.72 12.43L55.72 12.43ZM57.47 3.54L57.47 2.17L58.62 2.17L58.62 3.54L57.47 3.54ZM57.47 12.29L57.47 4.93L58.62 4.93L58.62 12.29L57.47 12.29ZM62.51 12.46L62.51 12.46Q61.21 12.46 60.54 11.52L60.54 11.52L60.54 11.52Q59.88 10.57 59.88 8.61L59.88 8.61L59.88 8.61Q59.88 6.65 60.54 5.71L60.54 5.71L60.54 5.71Q61.21 4.76 62.51 4.76L62.51 4.76L62.51 4.76Q63.81 4.76 64.48 5.71L64.48 5.71L64.48 5.71Q65.14 6.65 65.14 8.61L65.14 8.61L65.14 8.61Q65.14 10.57 64.48 11.52L64.48 11.52L64.48 11.52Q63.81 12.46 62.51 12.46L62.51 12.46ZM62.51 11.44L62.51 11.44Q63.94 11.44 63.94 8.88L63.94 8.88L63.94 8.34L63.94 8.34Q63.94 5.78 62.51 5.78L62.51 5.78L62.51 5.78Q61.08 5.78 61.08 8.34L61.08 8.34L61.08 8.88L61.08 8.88Q61.08 11.44 62.51 11.44L62.51 11.44ZM66.54 12.29L66.54 4.93L67.41 4.93L67.56 5.78L67.65 5.78L67.65 5.78Q68.22 4.76 69.43 4.76L69.43 4.76L69.43 4.76Q70.31 4.76 70.78 5.28L70.78 5.28L70.78 5.28Q71.25 5.81 71.25 6.99L71.25 6.99L71.25 12.29L70.10 12.29L70.10 7.07L70.10 7.07Q70.10 6.36 69.83 6.07L69.83 6.07L69.83 6.07Q69.57 5.78 69.06 5.78L69.06 5.78L69.06 5.78Q68.49 5.78 68.09 6.33L68.09 6.33L68.09 6.33Q67.69 6.87 67.69 7.80L67.69 7.80L67.69 12.29L66.54 12.29Z"></path></g><!----><g data-v-423bf9ae="" id="3389ba64-3026-44ec-8a12-efb9e7d20a17" transform="matrix(2.8125,0,0,2.8125,0,0)" stroke="none" fill="white"><path d="M6.651 19.325h6.024V32h6.65V19.325h6.024V32H32V0h-6.651v12.675h-6.024V0h-6.65v12.675H6.651V0H0v32h6.651z"></path></g><!----></svg>